<svg width="56" height="70" viewBox="0 0 56 70" fill="none" xmlns="http://www.w3.org/2000/svg">
<path d="M43.3125 2.1875H34.5625V1.09375C34.5625 0.489727 34.0728 0 33.4688 0C32.8647 0 32.375 0.489727 32.375 1.09375V2.1875H23.625V1.09375C23.625 0.489727 23.1353 0 22.5312 0C21.9272 0 21.4375 0.489727 21.4375 1.09375V2.1875H12.6875V1.09375C12.6875 0.489727 12.1978 0 11.5938 0C10.9897 0 10.5 0.489727 10.5 1.09375V2.1875H1.75C1.14598 2.1875 0.65625 2.67723 0.65625 3.28125V68.9062C0.65625 69.5103 1.14598 70 1.75 70H43.3125C43.9165 70 44.4062 69.5103 44.4062 68.9062V3.28125C44.4062 2.67723 43.9165 2.1875 43.3125 2.1875ZM42.2188 67.8125H2.84375V4.375H10.5V7.65625C10.5 8.26027 10.9897 8.75 11.5938 8.75C12.1978 8.75 12.6875 8.26027 12.6875 7.65625V4.375H21.4375V7.65625C21.4375 8.26027 21.9272 8.75 22.5312 8.75C23.1353 8.75 23.625 8.26027 23.625 7.65625V4.375H32.375V7.65625C32.375 8.26027 32.8647 8.75 33.4688 8.75C34.0728 8.75 34.5625 8.26027 34.5625 7.65625V4.375H42.2188V67.8125Z" fill="#333333"/>
<path d="M18.1562 12.0312H7.21875C6.61473 12.0312 6.125 12.521 6.125 13.125V24.0625C6.125 24.6665 6.61473 25.1562 7.21875 25.1562H18.1562C18.7603 25.1562 19.25 24.6665 19.25 24.0625V13.125C19.25 12.521 18.7603 12.0312 18.1562 12.0312ZM17.0625 22.9688H8.3125V14.2188H17.0625V22.9688Z" fill="#333333"/>
<path d="M18.1562 27.3438H7.21875C6.61473 27.3438 6.125 27.8335 6.125 28.4375V39.375C6.125 39.979 6.61473 40.4688 7.21875 40.4688H18.1562C18.7603 40.4688 19.25 39.979 19.25 39.375V28.4375C19.25 27.8335 18.7603 27.3438 18.1562 27.3438ZM17.0625 38.2812H8.3125V29.5312H17.0625V38.2812Z" fill="#333333"/>
<path d="M18.1562 42.6562H7.21875C6.61473 42.6562 6.125 43.146 6.125 43.75V54.6875C6.125 55.2915 6.61473 55.7812 7.21875 55.7812H18.1562C18.7603 55.7812 19.25 55.2915 19.25 54.6875V43.75C19.25 43.146 18.7603 42.6562 18.1562 42.6562ZM17.0625 53.5938H8.3125V44.8438H17.0625V53.5938Z" fill="#333333"/>
<path d="M22.5312 14.2188C22.5312 14.8228 23.021 15.3125 23.625 15.3125H36.75C37.354 15.3125 37.8438 14.8228 37.8438 14.2188C37.8438 13.6147 37.354 13.125 36.75 13.125H23.625C23.021 13.125 22.5312 13.6147 22.5312 14.2188Z" fill="#333333"/>
<path d="M36.75 21.875H23.625C23.021 21.875 22.5312 22.3647 22.5312 22.9688C22.5312 23.5728 23.021 24.0625 23.625 24.0625H36.75C37.354 24.0625 37.8438 23.5728 37.8438 22.9688C37.8438 22.3647 37.354 21.875 36.75 21.875Z" fill="#333333"/>
<path d="M23.625 19.6875H29.0938C29.6978 19.6875 30.1875 19.1978 30.1875 18.5938C30.1875 17.9897 29.6978 17.5 29.0938 17.5H23.625C23.021 17.5 22.5312 17.9897 22.5312 18.5938C22.5312 19.1978 23.021 19.6875 23.625 19.6875Z" fill="#333333"/>
<path d="M34.5625 19.6875C35.1665 19.6875 35.6562 19.1978 35.6562 18.5938C35.6562 17.9897 35.1665 17.5 34.5625 17.5H32.375C31.771 17.5 31.2812 17.9897 31.2812 18.5938C31.2812 19.1978 31.771 19.6875 32.375 19.6875H34.5625Z" fill="#333333"/>
<path d="M36.75 28.4375H23.625C23.021 28.4375 22.5312 28.9272 22.5312 29.5312C22.5312 30.1353 23.021 30.625 23.625 30.625H36.75C37.354 30.625 37.8438 30.1353 37.8438 29.5312C37.8438 28.9272 37.354 28.4375 36.75 28.4375Z" fill="#333333"/>
<path d="M36.75 37.1875H23.625C23.021 37.1875 22.5312 37.6772 22.5312 38.2812C22.5312 38.8853 23.021 39.375 23.625 39.375H36.75C37.354 39.375 37.8438 38.8853 37.8438 38.2812C37.8438 37.6772 37.354 37.1875 36.75 37.1875Z" fill="#333333"/>
<path d="M23.625 35H29.0938C29.6978 35 30.1875 34.5103 30.1875 33.9062C30.1875 33.3022 29.6978 32.8125 29.0938 32.8125H23.625C23.021 32.8125 22.5312 33.3022 22.5312 33.9062C22.5312 34.5103 23.021 35 23.625 35Z" fill="#333333"/>
<path d="M34.5625 35C35.1665 35 35.6562 34.5103 35.6562 33.9062C35.6562 33.3022 35.1665 32.8125 34.5625 32.8125H32.375C31.771 32.8125 31.2812 33.3022 31.2812 33.9062C31.2812 34.5103 31.771 35 32.375 35H34.5625Z" fill="#333333"/>
<path d="M36.75 43.75H23.625C23.021 43.75 22.5312 44.2397 22.5312 44.8438C22.5312 45.4478 23.021 45.9375 23.625 45.9375H36.75C37.354 45.9375 37.8438 45.4478 37.8438 44.8438C37.8438 44.2397 37.354 43.75 36.75 43.75Z" fill="#333333"/>
<path d="M36.75 52.5H23.625C23.021 52.5 22.5312 52.9897 22.5312 53.5938C22.5312 54.1978 23.021 54.6875 23.625 54.6875H36.75C37.354 54.6875 37.8438 54.1978 37.8438 53.5938C37.8438 52.9897 37.354 52.5 36.75 52.5Z" fill="#333333"/>
<path d="M23.625 50.3125H29.0938C29.6978 50.3125 30.1875 49.8228 30.1875 49.2188C30.1875 48.6147 29.6978 48.125 29.0938 48.125H23.625C23.021 48.125 22.5312 48.6147 22.5312 49.2188C22.5312 49.8228 23.021 50.3125 23.625 50.3125Z" fill="#333333"/>
<path d="M34.5625 50.3125C35.1665 50.3125 35.6562 49.8228 35.6562 49.2188C35.6562 48.6147 35.1665 48.125 34.5625 48.125H32.375C31.771 48.125 31.2812 48.6147 31.2812 49.2188C31.2812 49.8228 31.771 50.3125 32.375 50.3125H34.5625Z" fill="#333333"/>
<path d="M51.5156 14.2188C49.4014 14.2188 47.6875 15.9327 47.6875 18.0469V50.3125C47.6924 50.3445 47.699 50.3764 47.7072 50.4077C47.7055 50.4357 47.7055 50.4638 47.7072 50.4919L48.8009 57.0544C48.8883 57.5802 49.3421 57.9664 49.875 57.9688H53.1562C53.691 57.9685 54.1471 57.5818 54.2347 57.0544L55.3284 50.4919C55.3301 50.4638 55.3301 50.4357 55.3284 50.4077C55.3351 50.3762 55.3403 50.3445 55.3438 50.3125V18.0469C55.3438 15.9327 53.6298 14.2188 51.5156 14.2188ZM52.2298 55.7812H50.8014L50.073 51.4062H52.9583L52.2298 55.7812ZM53.1562 49.2188H49.875V22.9688H53.1562V49.2188ZM53.1562 20.7812H49.875V18.0469C49.875 17.1408 50.6096 16.4062 51.5156 16.4062C52.4217 16.4062 53.1562 17.1408 53.1562 18.0469V20.7812Z" fill="#333333"/>
</svg>
