<svg width="70" height="42" viewBox="0 0 70 42" fill="none" xmlns="http://www.w3.org/2000/svg">
<path d="M61.25 25.3464C60.646 25.3464 60.1562 25.8362 60.1562 26.4402V34.1041H58.4161C57.9872 30.3105 54.5643 27.583 50.7709 28.0118C47.5681 28.3738 45.0408 30.9013 44.6786 34.1041H21.875V2.38533H60.1562V5.82518C60.1562 6.4292 60.646 6.91893 61.25 6.91893C61.854 6.91893 62.3438 6.4292 62.3438 5.82518V1.29158C62.3438 0.687557 61.854 0.19783 61.25 0.19783H20.7812C20.1772 0.19783 19.6875 0.687557 19.6875 1.29158V2.38533H7.16187C4.41615 2.38889 2.19105 4.61385 2.1875 7.35971V8.94783C2.1875 9.55186 2.67723 10.0416 3.28125 10.0416H4.55328L3.71875 20.0658C1.53467 20.6343 0.00765625 22.6028 0 24.8597V34.1041C0 34.7081 0.489727 35.1978 1.09375 35.1978H3.30859C3.60842 39.1091 7.02229 42.0368 10.9335 41.737C14.4281 41.4691 17.2047 38.6924 17.4727 35.1978C17.4825 35.1978 17.4902 35.2033 17.5 35.2033H19.6875C19.6875 35.8073 20.1772 36.2971 20.7812 36.2971H44.7781C45.5573 40.0356 49.2197 42.4346 52.9583 41.6555C55.6512 41.0942 57.7553 38.99 58.3166 36.2971H61.25C61.854 36.2971 62.3438 35.8073 62.3438 35.2033V26.4402C62.3438 25.836 61.854 25.3464 61.25 25.3464ZM10.3906 39.5728C7.67238 39.5728 5.46875 37.3692 5.46875 34.651C5.46875 31.9327 7.67238 29.7291 10.3906 29.7291C13.1089 29.7291 15.3125 31.9327 15.3125 34.651C15.3095 37.368 13.1076 39.5698 10.3906 39.5728ZM19.6875 33.0103H17.5C17.4359 33.017 17.3724 33.0298 17.3108 33.0486C16.4311 29.2269 12.62 26.842 8.7984 27.7216C6.16328 28.3281 4.10143 30.3786 3.48031 33.0103H2.1875V24.8597C2.18928 23.3214 3.43602 22.0746 4.97437 22.0728H19.6875V33.0103ZM19.6875 19.8853H5.92812L6.74844 10.0416H19.6875V19.8853ZM19.6875 7.85408H4.375V7.35971C4.37678 5.82135 5.62352 4.57461 7.16187 4.57283H19.6875V7.85408ZM56.2673 35.1541C56.1267 37.6563 54.0545 39.6121 51.5484 39.6078H51.5473C49.2525 39.6028 47.2931 37.95 46.9011 35.6889C47.0928 35.354 47.0709 34.9378 46.8453 34.6247C46.9915 32.023 49.2192 30.0322 51.8211 30.1783C54.4228 30.3245 56.4136 32.5522 56.2673 35.1541Z" fill="#333333"/>
<path d="M60.1562 8.94783H44.8438C44.2397 8.94783 43.75 9.43756 43.75 10.0416C43.75 10.6456 44.2397 11.1353 44.8438 11.1353H60.1562C60.7603 11.1353 61.25 10.6456 61.25 10.0416C61.25 9.43756 60.7603 8.94783 60.1562 8.94783Z" fill="#333333"/>
<path d="M62.3438 20.9791H38.2812C37.6772 20.9791 37.1875 21.4688 37.1875 22.0728C37.1875 22.6769 37.6772 23.1666 38.2812 23.1666H62.3438C62.9478 23.1666 63.4375 22.6769 63.4375 22.0728C63.4375 21.4688 62.9478 20.9791 62.3438 20.9791Z" fill="#333333"/>
<path d="M60.1562 14.4166H48.125C47.521 14.4166 47.0312 14.9063 47.0312 15.5103C47.0312 16.1144 47.521 16.6041 48.125 16.6041H60.1562C60.7603 16.6041 61.25 16.1144 61.25 15.5103C61.25 14.9063 60.7603 14.4166 60.1562 14.4166Z" fill="#333333"/>
<path d="M64.5312 11.1353H66.7188C67.3228 11.1353 67.8125 10.6456 67.8125 10.0416C67.8125 9.43756 67.3228 8.94783 66.7188 8.94783H64.5312C63.9272 8.94783 63.4375 9.43756 63.4375 10.0416C63.4375 10.6456 63.9272 11.1353 64.5312 11.1353Z" fill="#333333"/>
<path d="M67.8125 20.9791H65.625C65.021 20.9791 64.5312 21.4688 64.5312 22.0728C64.5312 22.6769 65.021 23.1666 65.625 23.1666H67.8125C68.4165 23.1666 68.9062 22.6769 68.9062 22.0728C68.9062 21.4688 68.4165 20.9791 67.8125 20.9791Z" fill="#333333"/>
<path d="M68.9062 14.4166H64.5312C63.9272 14.4166 63.4375 14.9063 63.4375 15.5103C63.4375 16.1144 63.9272 16.6041 64.5312 16.6041H68.9062C69.5103 16.6041 70 16.1144 70 15.5103C70 14.9063 69.5103 14.4166 68.9062 14.4166Z" fill="#333333"/>
</svg>
